<svg xmlns="http://www.w3.org/2000/svg" viewBox="0 0 40.81 60.76"><path fill="#316fea" d="M26.4,47.05A20.41,20.41,0,1,1,46.81,26.64,20.42,20.42,0,0,1,26.4,47.05Zm0-30.63A10.23,10.23,0,1,0,36.62,26.64,10.24,10.24,0,0,0,26.4,16.42Z" transform="translate(-6 -6.24)"/><path fill="#316fea" d="M11.49,64.87a11.43,11.43,0,0,1,6.19-2c4,0,7.54,4.17,14.83,4.17,7.67,0,12.29-5.87,12.29-5.87l-3.67-5.81a11.43,11.43,0,0,1-6.19,2c-4,0-7.53-4.17-14.82-4.17-7.67,0-12.29,5.86-12.29,5.86Z" transform="translate(-6 -6.24)"/></svg>